<svg width="590" height="408" viewBox="0 0 590 408" fill="none" xmlns="http://www.w3.org/2000/svg">
<path fill-rule="evenodd" clip-rule="evenodd" d="M89.6829 13.1399C98.8029 7.3839 114.802 2.44187 129.308 0.901865C140.415 -0.277135 172.489 -0.307115 182.88 0.852885C209.548 3.82888 238.483 13.2909 261.63 26.6069C266.993 29.6909 271.379 32.4659 271.378 32.7739C271.378 33.0809 255.965 33.3539 237.128 33.3799C210.241 33.4179 200.193 33.8029 190.38 35.1689C156.918 39.8299 137.217 46.731 124.687 58.182C117.436 64.81 114.2 71.319 113.598 80.489C112.139 102.746 129.88 124.123 163.88 141.073C178.369 148.296 175.377 148.187 152.88 140.671C116.279 128.445 87.2899 109.64 74.0299 89.523C65.5569 76.67 63.9699 71.614 63.9269 57.332C63.8909 45.677 63.9869 45.1359 67.2669 38.5239C70.9609 31.0799 83.1729 17.2499 89.6829 13.1399ZM542.678 86.585C544.374 83.691 546.909 81.074 549.17 79.879C554.328 77.156 561.213 77.242 565.405 80.082C569.756 83.03 570.126 84.535 566.866 86.02C564.524 87.088 563.99 86.981 562.537 85.152C558.73 80.361 553.525 79.596 549.835 83.287C547.461 85.66 547.38 86.207 547.38 99.787V113.832H555.88C560.555 113.832 564.366 114.17 564.348 114.582C564.331 114.994 563.719 116.119 562.988 117.082C561.941 118.461 560.147 118.832 554.52 118.832H547.38V142.647V166.462L543.846 168.147C541.902 169.074 540.11 169.832 539.863 169.832C539.616 169.832 539.294 158.469 539.147 144.582L538.88 119.332L536.18 119.02C533.734 118.738 533.58 118.486 534.551 116.355C535.141 115.061 536.417 113.794 537.387 113.54C538.905 113.144 539.202 111.565 539.523 102.206C539.856 92.485 540.191 90.829 542.678 86.585ZM570.38 104.025C570.38 94.257 570.391 94.214 573.13 93.131C575.194 92.3155 576.447 91.819 577.207 92.231C578.382 92.8679 578.38 95.6757 578.38 102.832V113.832H583.987C588.689 113.832 589.496 114.087 588.987 115.414C588.653 116.284 588.38 117.384 588.38 117.859C588.38 118.334 586.242 118.86 583.63 119.027L578.88 119.332L578.604 134.603C578.301 151.332 578.801 152.752 583.836 149.453C587.529 147.033 588.002 149.364 584.523 152.843C580.873 156.492 575.48 156.932 572.38 153.832C570.542 151.994 570.38 150.499 570.38 135.332V118.832H567.38C565.73 118.832 564.38 118.577 564.38 118.266C564.38 116.424 566.739 113.832 568.415 113.832C570.235 113.832 570.38 113.107 570.38 104.025ZM299.38 113.105C299.38 106.311 303.037 100.68 309.562 97.429C316.116 94.163 323.885 93.971 330.38 96.916C335.004 99.012 339.38 102.492 339.38 104.073C339.38 105.215 334.356 111.832 333.489 111.832C333.129 111.832 331.958 110.204 330.887 108.215C324.032 95.486 306.38 96.525 306.38 109.656C306.38 116.927 309.219 120.084 320.919 125.827C332.506 131.513 335.336 134.089 336.078 139.617C337.743 152.034 326.275 159.56 312.009 155.412C308.888 154.505 304.919 152.499 303.19 150.953L300.046 148.144L302.963 144.488C304.567 142.477 306.181 140.832 306.548 140.832C306.916 140.832 308.219 142.453 309.444 144.435C312.392 149.205 316.885 151.824 322.13 151.828C329.564 151.835 332.71 146.064 328.316 140.478C327.181 139.035 321.821 135.578 316.406 132.796C302.246 125.523 299.38 122.208 299.38 113.105ZM463.863 120.004C463.878 114.549 464.212 113.386 466.241 111.744C472.889 106.36 478.563 114.552 472.686 121.047C471.103 122.795 471.269 123.15 475.814 127.765C479.345 131.35 480.814 133.739 481.375 136.806C482.883 145.052 479.755 151.85 473.052 154.894C467.918 157.225 465.556 157.287 460.4 155.223C455.802 153.384 455.507 152.254 458.566 148.217C459.768 146.63 460.878 145.16 461.032 144.949C461.187 144.738 462.919 145.976 464.881 147.699C469.406 151.672 472.664 151.702 476.559 147.807C480.641 143.725 479.845 140.924 472.499 133.518L466.731 127.703L464.041 131.768C462.562 134.003 460.935 135.832 460.425 135.832C458.177 135.832 458.424 133.464 461.028 130.049C463.429 126.901 463.849 125.413 463.863 120.004ZM391.38 119.421C391.38 118.645 392.765 116.845 394.457 115.421C397.699 112.692 401.226 112.144 404.446 113.867C406.09 114.747 406.391 116.058 406.454 122.617L406.528 130.332L409.32 124.332C412.744 116.975 416.487 112.832 419.71 112.832C423.351 112.832 424.597 115.134 425.152 122.886L425.654 129.91L427.961 124.234C432.057 114.157 438.299 110.023 441.823 115.055C443.082 116.852 443.38 120.488 443.38 134.055C443.38 149.065 443.556 150.832 445.051 150.832C445.97 150.832 447.501 150.128 448.452 149.267C451.34 146.653 451.613 149.402 448.798 152.747C446.725 155.211 445.426 155.832 442.348 155.832C436.091 155.832 435.38 153.915 435.38 137.036C435.38 123.912 435.23 122.713 433.63 123.009C430.876 123.517 427.229 132.126 426.17 140.619C424.821 151.428 424.597 153.976 423.249 154.919C422.734 155.279 422.056 155.405 421.088 155.667C419.324 156.146 417.543 156.353 417.13 156.126C416.717 155.899 416.38 148.316 416.38 139.273C416.38 129.638 415.99 122.832 415.437 122.832C412.39 122.832 407.837 135.709 406.787 147.297C406.116 154.697 406.041 154.863 402.991 155.654L399.88 156.461L399.608 138.251C399.389 123.539 399.049 119.802 397.84 118.798C396.63 117.794 395.995 117.87 394.533 119.194C392.312 121.204 391.38 121.271 391.38 119.421ZM489.402 137.114C489.438 127.655 494.639 119.447 503.64 114.644C511.067 110.682 511.414 112.87 504.441 119.693C499.613 124.417 498.462 126.225 497.539 130.525C494.773 143.425 504.487 154.739 514.676 150.482C526.989 145.337 524.178 128.24 510.049 122.338L506.218 120.737L510.549 117.294C512.931 115.401 515.151 113.847 515.482 113.842C517.364 113.811 523.168 118.954 525.098 122.362C528.399 128.189 528.291 138.65 524.861 145.386C518.854 157.184 505.053 160.318 495.289 152.102C491.102 148.579 489.375 144.182 489.402 137.114ZM344.608 136.912C345.32 126.99 349.816 119.735 357.88 115.491C364.153 112.19 375.828 114.063 378.35 118.777C379.766 121.422 379.762 121.431 376.341 122.848C373.592 123.987 373.061 123.881 370.784 121.742C367.547 118.7 361.585 118.556 357.673 121.426C352.829 124.978 351.201 129.368 351.669 137.61C352.194 146.83 354.477 149.832 360.965 149.832C367.724 149.832 370.941 144.591 372.588 130.9C372.788 129.231 373.899 128.054 376.13 127.147L379.38 125.826V136.747C379.38 142.754 379.653 148.38 379.987 149.25C380.752 151.245 382.761 151.282 384.38 149.332C385.989 147.393 387.38 147.415 387.38 149.38C387.38 152.07 382.372 155.832 378.791 155.832C375.215 155.832 372.38 152.988 372.38 149.401C372.38 147.783 371.539 148.241 367.837 151.874C363.747 155.889 362.822 156.332 358.543 156.332C349.024 156.332 343.742 148.971 344.608 136.912ZM469.273 118.832C470.166 118.832 471.38 116.481 471.38 114.75C471.38 114.245 470.705 113.832 469.88 113.832C468.947 113.832 468.38 114.776 468.38 116.332C468.38 117.707 468.782 118.832 469.273 118.832ZM316.965 233.332C317.088 215.964 325.4 202.252 339.161 196.717C345.873 194.017 355.376 194.54 358.848 197.802C361.904 200.673 362.066 203.987 359.362 208.36C356.484 213.018 348.811 217.832 344.265 217.832C341.547 217.832 342.003 216.622 345.585 214.332C350.664 211.084 352.943 207.336 351.806 204.102C349.813 198.434 340.872 198.586 334.439 204.398C324.254 213.599 322.821 239.527 332.093 246.821C335.852 249.778 342.395 249.532 346.248 246.29C350.173 242.987 353.042 238.249 353.891 233.666C354.392 230.968 355.181 229.848 356.883 229.421C358.154 229.102 359.911 228.565 360.787 228.229C362.206 227.685 362.38 229.476 362.38 244.604V261.589L359.423 262.814C357.796 263.488 356.167 264.105 355.802 264.186C355.437 264.266 355.216 259.044 355.312 252.582C355.408 246.12 355.249 240.832 354.959 240.832C354.669 240.832 353.693 242.294 352.792 244.082C348.817 251.958 343.04 255.832 335.268 255.832C323.435 255.832 316.863 247.753 316.965 233.332ZM374.497 222.648C372.828 219.976 373.109 218.725 376.067 215.637C377.545 214.094 379.007 212.832 379.317 212.832C379.627 212.832 381.137 214.407 382.673 216.332C385.885 220.358 388.911 220.804 395.401 218.207C397.635 217.313 399.71 216.829 400.012 217.13C400.313 217.432 398.735 220.096 396.505 223.051C389.049 232.926 387.227 241.826 391.541 247.309C393.449 249.736 394.207 249.999 398.041 249.567C400.427 249.298 402.38 249.432 402.38 249.866C402.38 251.496 396.122 255.838 393.553 255.99C385.691 256.456 382.38 253.441 382.38 245.814C382.38 240.462 385.351 231.41 388.366 227.578L390.269 225.157L384.627 225.42L378.985 225.684L376.182 231.226C374.19 235.166 372.946 236.603 371.88 236.194C371.251 235.953 370.824 235.813 370.643 235.52C370.27 234.92 370.931 233.678 372.997 229.601C375.075 225.5 375.384 224.068 374.497 222.648ZM409.18 237.895C409.18 228.278 413.643 220.649 422.227 215.59C430.948 210.451 431.721 212.361 424.032 220.05C419.829 224.253 418.422 226.49 417.461 230.495C415.859 237.172 417.375 243.027 421.87 247.522C424.801 250.453 425.799 250.832 430.593 250.832C435.271 250.832 436.386 250.435 438.807 247.908C442.974 243.558 443.428 237.296 440.001 231.447C437.146 226.577 433.295 223.351 429.069 222.29C427.59 221.919 426.38 221.31 426.38 220.938C426.38 220.152 434.415 213.832 435.414 213.832C435.783 213.832 437.58 214.844 439.408 216.082C450.008 223.259 450.167 242.568 439.701 251.78C432.425 258.185 422.711 258.347 415.389 252.186C410.957 248.457 409.18 244.367 409.18 237.895ZM455.871 219.246C451.306 222.237 450.958 220.1 455.303 215.755C458.91 212.148 462.623 211.984 465.925 215.287C468.312 217.673 468.38 218.156 468.38 232.62C468.38 240.803 468.664 247.783 469.011 248.13C470.339 249.458 473.483 246.563 475.907 241.779C477.295 239.039 479.593 232.141 481.013 226.449C483.464 216.623 483.768 216.018 487.021 214.466C488.906 213.567 490.658 212.832 490.914 212.832C491.17 212.832 491.38 220.67 491.38 230.25C491.38 239.83 491.653 248.38 491.987 249.25C492.752 251.245 494.761 251.282 496.38 249.332C497.065 248.507 498.02 247.832 498.502 247.832C500.298 247.832 499.289 250.545 496.5 253.217C494.296 255.328 492.833 255.901 490.273 255.654C485.474 255.192 484.412 252.368 484.395 240.023C484.38 229.777 483.26 227.325 481.902 234.565C480.775 240.574 476.573 250.021 473.689 253.032C472.226 254.558 469.455 256.102 467.531 256.464C464.642 257.005 463.713 256.726 462.206 254.865C460.6 252.882 460.38 250.585 460.38 235.78C460.38 225.166 459.994 218.712 459.336 218.305C458.762 217.95 457.203 218.373 455.871 219.246ZM502.38 219.421C502.38 218.645 503.812 216.805 505.562 215.332C508.061 213.229 509.402 212.784 511.812 213.257C515.436 213.968 517.376 216.234 517.391 219.773L517.402 222.332L519.979 219.062C525.355 212.24 532.202 211.287 538.394 216.498C543.885 221.118 545.671 226.065 545.186 235.31C544.686 244.842 541.825 251.096 536.565 254.161C530.358 257.777 521.343 256.285 523.995 252.081C524.755 250.875 526.195 250.455 528.972 250.627C531.122 250.76 533.38 250.523 533.99 250.1C536.491 248.37 538.622 242.231 538.745 236.403C538.9 229.021 536.497 224.256 531.159 221.363C526.489 218.832 522.788 219.977 519.933 224.837C518.032 228.073 517.856 230.243 517.555 254.16L517.229 279.989L514.335 280.998C512.743 281.552 511.194 281.967 510.893 281.919C510.592 281.871 510.24 267.904 510.113 250.882C509.866 218.086 509.51 215.595 505.575 219.156C503.313 221.203 502.38 221.28 502.38 219.421ZM164.088 289.488C154.169 279.426 145.923 273.491 131.085 265.735C124.922 262.514 120.382 259.868 120.996 259.856C124.161 259.789 153.601 270.794 165.324 276.425C183.981 285.388 196.927 294.224 208.38 305.812C223.187 320.793 229.33 332.827 230.158 348.473C231.007 364.534 226.158 375.174 211.733 388.902C204.548 395.74 199.158 398.94 189.248 402.252C178.044 405.996 162.634 407.832 142.414 407.832C106.82 407.832 77.7459 401.377 47.8799 386.845C36.4509 381.283 20.8739 372.005 21.6549 371.223C21.8569 371.022 32.9699 371.387 46.3499 372.036C84.4648 373.884 120.241 370.92 141.88 364.121C171.139 354.928 184.888 338.418 180.464 317.789C178.295 307.676 173.006 298.534 164.088 289.488Z" fill="black"/>
<path d="M51.9319 29.9579C44.2439 31.7589 33.4889 37.7979 26.7609 44.0919C15.3149 54.7989 7.82588 67.982 2.69789 86.448C0.0358865 96.036 -0.0440836 97.066 0.0299163 120.832C0.0969163 142.483 0.351883 146.241 2.21888 153.146C5.48388 165.227 9.67685 172.066 21.0378 183.842C29.0108 192.106 32.9899 195.365 39.5378 198.991C56.2128 208.226 97.8179 231.077 139.38 253.827C162.755 266.621 183.68 278.082 185.88 279.294C188.08 280.506 196.745 285.222 205.136 289.773C218.317 296.922 221.259 298.984 226.76 304.925C244.354 323.928 248.333 350.86 236.958 373.95C235.093 377.735 233.744 380.832 233.96 380.832C234.177 380.832 239.422 378.433 245.617 375.502C260.349 368.53 268.352 361.716 276.914 348.855C284.206 337.901 289.361 327.321 292.031 317.832C294.714 308.291 294.706 270.103 292.017 257.832C289.55 246.57 287.124 240.292 282.431 233.033L252.979 206.483C252.979 206.483 234.353 193.408 186.38 169.095C138.407 144.782 70.0068 110.019 64.9649 105.092C59.9229 100.165 49.3088 71.332 49.3088 71.332C47.8298 56.468 55.0078 34.6149 55.0078 34.6149C60.2488 24.1929 58.5199 28.4139 51.9319 29.9579Z" fill="black"/>
<path d="M51.9179 29.9579C44.2299 31.7589 33.4749 37.798 26.7469 44.092C15.3009 54.799 7.81188 67.982 2.68389 86.448C0.0218868 96.036 -0.0582052 97.066 0.0157948 120.832C0.0827947 142.483 0.337883 146.241 2.20488 153.146C5.46988 165.227 9.66285 172.066 21.0238 183.842C28.9968 192.106 32.9759 195.365 39.5238 198.991C56.1988 208.226 97.8039 231.077 139.366 253.827C162.741 266.621 183.666 278.082 185.866 279.294C188.066 280.506 196.731 285.222 205.122 289.773C218.303 296.922 221.245 298.984 226.746 304.925C244.34 323.928 248.319 350.86 236.944 373.95C235.079 377.735 233.73 380.832 233.946 380.832C234.163 380.832 239.408 378.433 245.603 375.502C260.335 368.53 268.338 361.716 276.9 348.855C284.192 337.901 289.347 327.321 292.017 317.832C294.7 308.291 294.692 270.103 292.003 257.832C289.536 246.57 287.11 240.292 282.417 233.033L252.965 206.483C252.965 206.483 234.339 193.408 186.366 169.095C138.393 144.782 69.9928 110.019 64.9508 105.092C59.9088 100.165 49.2948 71.332 49.2948 71.332C47.8158 56.468 54.9938 34.6149 54.9938 34.6149C60.2348 24.1929 58.5059 28.4139 51.9179 29.9579Z" fill="#A2121C"/>
</svg>
